<?xml version="1.0" encoding="utf-8"?>
<!-- Generator: Adobe Illustrator 25.2.0, SVG Export Plug-In . SVG Version: 6.00 Build 0)  -->
<svg version="1.1" id="Layer_1" xmlns="http://www.w3.org/2000/svg" xmlns:xlink="http://www.w3.org/1999/xlink" x="0px" y="0px"
	 viewBox="0 0 64 64" style="enable-background:new 0 0 64 64;" xml:space="preserve">
<style type="text/css">
	.st0{fill:#FFFFFF;}
</style>
<path d="M31.82,63.45C14.5,63.45,0.4,49.36,0.4,32.03C0.4,14.71,14.5,0.61,31.82,0.61s31.42,14.09,31.42,31.42
	C63.24,49.36,49.14,63.45,31.82,63.45z M31.82,2.58c-16.24,0-29.45,13.21-29.45,29.45s13.21,29.45,29.45,29.45
	c16.24,0,29.45-13.21,29.45-29.45S48.06,2.58,31.82,2.58z"/>
<g>
	<path d="M20.19,22.89h23.44v4.94H20.19V22.89z M25.16,18.89c0-2.61,0.96-4.56,2.87-5.86c1.91-1.3,4.86-1.94,8.83-1.94h6.78v5.5
		h-6.59c-0.87,0-1.54,0.21-1.99,0.62c-0.45,0.42-0.68,0.96-0.68,1.62v33.51h-9.21V18.89z"/>
</g>
</svg>
