<?xml version="1.0" encoding="utf-8"?>
<!-- Generator: Adobe Illustrator 25.2.0, SVG Export Plug-In . SVG Version: 6.00 Build 0)  -->
<svg version="1.1" id="Layer_1" xmlns="http://www.w3.org/2000/svg" xmlns:xlink="http://www.w3.org/1999/xlink" x="0px" y="0px"
	 viewBox="0 0 64 64" style="enable-background:new 0 0 64 64;" xml:space="preserve">
<style type="text/css">
	.st0{fill:#FFFFFF;}
</style>
<path d="M31.82,63.45C14.5,63.45,0.4,49.36,0.4,32.03C0.4,14.71,14.5,0.61,31.82,0.61s31.42,14.09,31.42,31.42
	C63.24,49.36,49.14,63.45,31.82,63.45z M31.82,2.58c-16.24,0-29.45,13.21-29.45,29.45s13.21,29.45,29.45,29.45
	c16.24,0,29.45-13.21,29.45-29.45S48.06,2.58,31.82,2.58z"/>
<g>
	<path d="M48.48,47.79c-1.81,0.65-4.16,1.29-7.04,1.91c-2.89,0.62-5.73,0.93-8.54,0.93c-6.48,0-11.64-1.65-15.48-4.95
		s-5.77-7.98-5.77-14.03c0-5.7,1.92-10.27,5.77-13.7c3.85-3.44,9.11-5.15,15.79-5.15c3.45,0,6.25,0.29,8.41,0.87
		c2.16,0.58,4.39,1.36,6.7,2.36v8.53h-0.94c-0.5-0.34-1.21-0.83-2.14-1.45s-1.84-1.16-2.73-1.6c-1.03-0.52-2.23-0.97-3.58-1.34
		c-1.36-0.37-2.79-0.56-4.3-0.56c-1.77,0-3.39,0.24-4.84,0.73c-1.46,0.49-2.76,1.24-3.9,2.25c-1.09,0.98-1.95,2.21-2.59,3.71
		s-0.95,3.24-0.95,5.23c0,4.25,1.21,7.39,3.63,9.4c2.42,2.02,5.72,3.03,9.91,3.03c0.37,0,0.8-0.01,1.3-0.02
		c0.5-0.02,0.93-0.04,1.3-0.07V36.7h-8v-6.82h18.02V47.79z"/>
</g>
</svg>
