<?xml version="1.0" encoding="utf-8"?>
<!-- Generator: Adobe Illustrator 25.2.0, SVG Export Plug-In . SVG Version: 6.00 Build 0)  -->
<svg version="1.1" id="Layer_1" xmlns="http://www.w3.org/2000/svg" xmlns:xlink="http://www.w3.org/1999/xlink" x="0px" y="0px"
	 viewBox="0 0 64 64" style="enable-background:new 0 0 64 64;" xml:space="preserve">
<path d="M45.81,64.29H18.34C8.15,64.29-0.13,56-0.13,45.81V18.34c0-10.19,8.29-18.47,18.47-18.47h27.47
	c10.19,0,18.47,8.29,18.47,18.47v27.47C64.29,56,56,64.29,45.81,64.29z M18.34,1.87c-9.08,0-16.47,7.39-16.47,16.47v27.47
	c0,9.08,7.39,16.47,16.47,16.47h27.47c9.08,0,16.47-7.39,16.47-16.47V18.34c0-9.08-7.39-16.47-16.47-16.47H18.34z"/>
<g>
	<path d="M32,52.11c-10.27,0-18.62-8.78-18.62-19.58c0-10.8,8.35-19.58,18.62-19.58c10.27,0,18.62,8.78,18.62,19.58
		C50.62,43.32,42.27,52.11,32,52.11z M32,16.94c-8.06,0-14.62,6.99-14.62,15.58S23.94,48.11,32,48.11s14.62-6.99,14.62-15.58
		S40.06,16.94,32,16.94z"/>
	<path d="M32,52.61c-10.54,0-19.12-9.01-19.12-20.08S21.46,12.44,32,12.44s19.12,9.01,19.12,20.08S42.54,52.61,32,52.61z M32,13.44
		c-9.99,0-18.12,8.56-18.12,19.08c0,10.52,8.13,19.08,18.12,19.08c9.99,0,18.12-8.56,18.12-19.08C50.12,22,41.99,13.44,32,13.44z
		 M32,48.61c-8.34,0-15.12-7.21-15.12-16.08c0-8.87,6.78-16.08,15.12-16.08c8.34,0,15.12,7.21,15.12,16.08
		C47.12,41.39,40.34,48.61,32,48.61z M32,17.44c-7.78,0-14.12,6.77-14.12,15.08S24.22,47.61,32,47.61s14.12-6.77,14.12-15.08
		S39.78,17.44,32,17.44z"/>
</g>
<circle cx="49.13" cy="11.03" r="5.73"/>
</svg>
