<?xml version="1.0" encoding="utf-8"?>
<!-- Generator: Adobe Illustrator 25.2.0, SVG Export Plug-In . SVG Version: 6.00 Build 0)  -->
<svg version="1.1" id="Layer_1" xmlns="http://www.w3.org/2000/svg" xmlns:xlink="http://www.w3.org/1999/xlink" x="0px" y="0px"
	 viewBox="0 0 64 64" style="enable-background:new 0 0 64 64;" xml:space="preserve">
<style type="text/css">
	.st0{fill:#FFFFFF;}
</style>
<path d="M31.82,63.45C14.5,63.45,0.4,49.36,0.4,32.03C0.4,14.71,14.5,0.61,31.82,0.61s31.42,14.09,31.42,31.42
	C63.24,49.36,49.14,63.45,31.82,63.45z M31.82,2.58c-16.24,0-29.45,13.21-29.45,29.45s13.21,29.45,29.45,29.45
	c16.24,0,29.45-13.21,29.45-29.45S48.06,2.58,31.82,2.58z"/>
<g>
	<path d="M14.69,15.69c0-2.14,1.88-3.65,4.46-3.65s4.46,1.51,4.46,3.65c0,2.12-1.88,3.65-4.46,3.65S14.69,17.81,14.69,15.69z
		 M15.29,22.78H23v23.54h-7.71V22.78z"/>
	<path d="M29.77,22.78h6.29l0.56,2.98h0.19c2.19-1.9,4.81-3.55,8.36-3.55c5.66,0,8.08,3.61,8.08,9.49v14.61h-7.71V32.6
		c0-3.39-1.01-4.45-3.23-4.45c-1.94,0-3.12,0.81-4.82,2.29v15.88h-7.71V22.78z"/>
</g>
</svg>
